<svg width="18" height="18" viewBox="0 0 18 18" fill="none" xmlns="http://www.w3.org/2000/svg">
<path d="M4.05752 16.3125C3.21752 16.3125 2.68502 16.0275 2.34752 15.69C1.68752 15.03 1.22252 13.6275 2.70752 10.65L3.36002 9.35249C3.44252 9.17999 3.44252 8.81999 3.36002 8.64749L2.70752 7.34999C1.21502 4.37249 1.68752 2.96249 2.34752 2.30999C3.00002 1.64999 4.41002 1.17749 7.38002 2.66999L13.8 5.87999C15.3975 6.67499 16.275 7.78499 16.275 8.99999C16.275 10.215 15.3975 11.325 13.8075 12.12L7.38752 15.33C5.93252 16.0575 4.85252 16.3125 4.05752 16.3125ZM4.05752 2.81249C3.65252 2.81249 3.33752 2.90999 3.14252 3.10499C2.59502 3.64499 2.81252 5.04749 3.71252 6.83999L4.36502 8.14499C4.60502 8.63249 4.60502 9.36749 4.36502 9.85499L3.71252 11.1525C2.81252 12.9525 2.59502 14.3475 3.14252 14.8875C3.68252 15.435 5.08502 15.2175 6.88502 14.3175L13.305 11.1075C14.4825 10.5225 15.15 9.74999 15.15 8.99249C15.15 8.23499 14.475 7.46249 13.2975 6.87749L6.87752 3.67499C5.73752 3.10499 4.75502 2.81249 4.05752 2.81249Z" fill="white"/>
<path d="M8.13002 9.5625H4.08002C3.77252 9.5625 3.51752 9.3075 3.51752 9C3.51752 8.6925 3.77252 8.4375 4.08002 8.4375H8.13002C8.43752 8.4375 8.69252 8.6925 8.69252 9C8.69252 9.3075 8.43752 9.5625 8.13002 9.5625Z" fill="white"/>
</svg>
