<svg width="13" height="12" viewBox="0 0 13 12" fill="none" xmlns="http://www.w3.org/2000/svg">
<path d="M7.29723 0.985803L8.36729 2.92086C8.5139 3.18647 8.88186 3.43879 9.18445 3.4729L10.9856 3.69931C12.1389 3.84177 12.4363 4.66023 11.6514 5.5175L10.3143 6.96982C10.0911 7.2132 9.9752 7.67751 10.0649 7.99619L10.5334 9.70601C10.9019 11.0559 10.2011 11.6155 8.96958 10.9524L7.24921 10.026C6.93589 9.8566 6.4382 9.88125 6.14384 10.0714L4.50612 11.1315C3.33374 11.8892 2.58771 11.3903 2.84496 10.0159L3.17439 8.27649C3.23589 7.95135 3.08844 7.49762 2.84506 7.2744L1.38477 5.93512C0.532547 5.14735 0.761789 4.30775 1.89742 4.06971L3.67062 3.69932C3.96987 3.63432 4.31668 3.36 4.43844 3.08089L5.3469 1.06105C5.84347 -0.0271961 6.71952 -0.0614862 7.29723 0.985803Z" fill="#FFBD39"/>
</svg>
